# xmcd
#
# Track frame offsets:
#	150
#	12615
#	25648
#	37682
#	47018
#	58689
#	66714
#	80842
#	90217
#	99463
#
# Disc length: 1464 seconds
#
# Revision: 0
# Processed by: cddbd v1.5.2PL0 Copyright (c) Steve Scherf et al.
# Submitted via: audiograbber 1.83.01
#
DISCID=7805b60a
DTITLE=Porter Wagoner and Dolly Parton - Burning the Midnight Oil
DYEAR=1972
DGENRE=Country
TTITLE0=More Than Words Can Tell
TTITLE1=The Right Combination
TTITLE2=I've Been This Way Too Long
TTITLE3=In Each Love Some Pain Must Fall
TTITLE4=Her and the Car and the Mobile Home
TTITLE5=Burning the Midnight Oil
TTITLE6=Somewhere Along the Way
TTITLE7=On and On
TTITLE8=Through Thick and Thin
TTITLE9=The Fog Has Lifted
EXTD=
EXTT0=
EXTT1=
EXTT2=
EXTT3=
EXTT4=
EXTT5=
EXTT6=
EXTT7=
EXTT8=
EXTT9=
PLAYORDER=
